<svg width="15" height="20" viewBox="0 0 15 20" fill="none" xmlns="http://www.w3.org/2000/svg">
<path fill-rule="evenodd" clip-rule="evenodd" d="M7.64936 2.00684C5.36755 1.9068 3.2533 2.88076 2.42143 4.83019C1.63666 6.66928 1.98603 8.95642 3.1636 11.3448C4.19516 13.4371 5.80294 15.4763 7.55028 17.1147C9.10303 15.4821 10.6529 13.565 11.7032 11.5777C12.9092 9.29594 13.3777 7.07849 12.6605 5.11759C11.9875 3.27782 9.94558 2.10752 7.64936 2.00684ZM7.73697 0.00876377C10.5376 0.131552 13.4974 1.58344 14.5388 4.43058C15.5358 7.15658 14.7979 10.0025 13.4714 12.5123C12.1388 15.0336 10.1317 17.3746 8.30457 19.2063L7.64897 19.8635L6.9449 19.2585C4.76726 17.3874 2.67687 14.8804 1.36978 12.2293C0.07258 9.5982 -0.531189 6.65374 0.581912 4.04523C1.8444 1.08665 4.92196 -0.114656 7.73697 0.00876377Z" fill="#D182B4"/>
<path d="M11 7.5C11 9.433 9.433 11 7.5 11C5.567 11 4 9.433 4 7.5C4 5.567 5.567 4 7.5 4C9.433 4 11 5.567 11 7.5Z" fill="white"/>
<path fill-rule="evenodd" clip-rule="evenodd" d="M7.5 9C8.32843 9 9 8.32843 9 7.5C9 6.67157 8.32843 6 7.5 6C6.67157 6 6 6.67157 6 7.5C6 8.32843 6.67157 9 7.5 9ZM7.5 11C9.433 11 11 9.433 11 7.5C11 5.567 9.433 4 7.5 4C5.567 4 4 5.567 4 7.5C4 9.433 5.567 11 7.5 11Z" fill="#D182B4"/>
</svg>
