<svg xmlns="http://www.w3.org/2000/svg" xmlns:xlink="http://www.w3.org/1999/xlink" viewBox="0,0,256,256" width="50px" height="50px" fill-rule="nonzero"><g transform="translate(10.24,10.24) scale(0.92,0.92)"><g fill="#ff99b9" fill-rule="nonzero" stroke="#ff99b9" stroke-width="20.48" stroke-linecap="butt" stroke-linejoin="round" stroke-miterlimit="10" stroke-dasharray="" stroke-dashoffset="0" font-family="none" font-weight="none" font-size="none" text-anchor="none" style="mix-blend-mode: normal"><path d="M204.8,20.48v11.18c8.0128,2.83136 17.16752,12.16128 22.18,28.96c1.64352,4.49536 5.46416,6.36464 5.5,6.38c2.27328,1.00863 3.49416,3.50847 2.89,5.92c-0.94208,3.76832 -4.81128,19.24 -30.57,19.24h-5.12c1.62816,4.08576 5.12,13.34784 5.12,25.6c0,15.54432 -6.47768,29.3788 -19.59,42.23l15.11,48.47c9.3696,2.64192 13.25296,8.83408 14.62,15.7c0.07168,0.37376 0.10512,0.75136 0.1,1.12c-0.03584,2.7648 -2.2372,5.12 -5.13,5.12h-14.71c-6.6816,0 -12.556,-3.80504 -16.78,-9.35c-3.61472,-4.74624 -11.75504,-20.6148 -19.22,-35.77l-16.35,-33.9c-1.2288,-2.54976 -4.30072,-3.60856 -6.83,-2.39c-2.54976,1.22368 -3.6188,4.29024 -2.39,6.84l13.27,27.53c-4.9408,14.27968 -20.5896,21.44 -29.14,21.44h5.12c10.24,0 20.48,5.12 20.48,20.48c0,2.82624 -2.29376,5.12 -5.12,5.12h-76.8c-8.26119,0 -15.27219,-4.96568 -18.49,-12.03c-4.57534,4.25125 -10.6518,6.91 -17.35,6.91c-14.07752,0 -25.6,-11.52248 -25.6,-25.6c0,-23.98815 6.73568,-40.45351 13.66,-50.84c6.92432,-10.38647 14.43,-14.99 14.43,-14.99c0.83085,-0.51593 1.79208,-0.78313 2.77,-0.77c2.3012,0.03501 4.29632,1.60101 4.87697,3.82802c0.58066,2.22701 -0.39583,4.56781 -2.38697,5.72197c0,0 -5.29432,3.07648 -11.17,11.89c-5.87568,8.81351 -11.94,23.06814 -11.94,45.16c0,8.54264 6.81736,15.36 15.36,15.36c8.54264,0 15.36,-6.81736 15.36,-15.36v-20.48c0,-38.4 24.40192,-59.52 46.08,-71.68c21.67808,-12.16 45.75744,-15.36 56.32,-30.72c12.5696,-18.28352 20.87608,-31.66472 33.63,-39.57c0.6912,-0.52736 1.42664,-1.00088 2.21,-1.39c0,0 0.3708,-1.09768 1.19,-2.69c2.6368,-5.5296 9.5608,-17.73368 19.34,-17.79c2.78528,-0.01536 5.07,2.33472 5.07,5.12zM250.65,121.42c0.1536,0.49152 0.23,0.97872 0.23,1.46c0.01024,2.73408 -2.2216,5.12 -5.14,5.12h-15.34c0,0 -7.7364,10.2596 -21.33,16.25c3.92192,-8.41216 5.97,-17.25352 5.97,-26.49c0,-2.08896 -0.11128,-4.07464 -0.27,-6.01c4.11136,-2.2272 8.85112,-4.23 15.63,-4.23c12.7232,0 18.42728,7.9096 20.25,13.9z" id="strokeMainSVG"></path></g><g fill="#000000" fill-rule="nonzero" stroke="none" stroke-width="1" stroke-linecap="butt" stroke-linejoin="miter" stroke-miterlimit="10" stroke-dasharray="" stroke-dashoffset="0" font-family="none" font-weight="none" font-size="none" text-anchor="none" style="mix-blend-mode: normal"><g transform="scale(5.12,5.12)"><path d="M39.00977,3c-1.91,0.011 -3.26234,2.39461 -3.77734,3.47461c-0.16,0.311 -0.23242,0.52539 -0.23242,0.52539c-0.153,0.076 -0.29664,0.16848 -0.43164,0.27148c-2.491,1.544 -4.11336,4.15752 -6.56836,7.72852c-2.063,3 -6.766,3.625 -11,6c-4.234,2.375 -9,6.5 -9,14v4c0,1.66848 -1.33152,3 -3,3c-1.66848,0 -3,-1.33152 -3,-3c0,-4.31482 1.18444,-7.09892 2.33203,-8.82031c1.14759,-1.72139 2.18164,-2.32227 2.18164,-2.32227c0.3889,-0.22542 0.57962,-0.68261 0.46621,-1.11757c-0.11341,-0.43496 -0.50308,-0.74082 -0.95253,-0.74766c-0.191,-0.00257 -0.37874,0.04962 -0.54102,0.15039c0,0 -1.46595,0.89913 -2.81836,2.92773c-1.35241,2.02861 -2.66797,5.2445 -2.66797,9.92969c0,2.74952 2.25048,5 5,5c1.30824,0 2.49505,-0.51929 3.38867,-1.34961c0.62848,1.37975 1.99782,2.34961 3.61133,2.34961h15c0.552,0 1,-0.448 1,-1c0,-3 -2,-4 -4,-4h-1c1.67,0 4.72641,-1.3985 5.69141,-4.1875l-2.5918,-5.37695c-0.24,-0.498 -0.0312,-1.09694 0.4668,-1.33594c0.494,-0.238 1.09399,-0.0312 1.33398,0.4668l3.19336,6.62109c1.458,2.96 3.04791,6.05933 3.75391,6.98633c0.825,1.083 1.97234,1.82617 3.27734,1.82617h2.87305c0.565,0 0.99495,-0.46 1.00195,-1c0.001,-0.072 -0.00553,-0.14575 -0.01953,-0.21875c-0.267,-1.341 -1.02547,-2.55041 -2.85547,-3.06641l-2.95117,-9.4668c2.561,-2.51 3.82617,-5.21205 3.82617,-8.24805c0,-2.393 -0.682,-4.202 -1,-5h1c5.031,0 5.7867,-3.02181 5.9707,-3.75781c0.118,-0.471 -0.12045,-0.95925 -0.56445,-1.15625c-0.007,-0.003 -0.75322,-0.36809 -1.07422,-1.24609c-0.979,-3.281 -2.76703,-5.10325 -4.33203,-5.65625v-2.18359c0,-0.544 -0.44623,-1.003 -0.99023,-1zM40.61719,11.00195c0.30763,0 0.69055,0.07581 0.99805,0.38281c0.615,0.615 0.30859,1.53906 0.30859,1.53906c0,0 -0.92406,0.30541 -1.53906,-0.30859c-0.615,-0.615 -0.30664,-1.53711 -0.30664,-1.53711c0,0 0.23144,-0.07617 0.53906,-0.07617zM45,21c-1.324,0 -2.24973,0.39117 -3.05273,0.82617c0.031,0.378 0.05273,0.76583 0.05273,1.17383c0,1.804 -0.40002,3.53083 -1.16602,5.17383c2.655,-1.17 4.16602,-3.17383 4.16602,-3.17383h2.99609c0.57,0 1.00591,-0.466 1.00391,-1c0,-0.094 -0.01492,-0.18916 -0.04492,-0.28516c-0.356,-1.17 -1.47008,-2.71484 -3.95508,-2.71484z"></path></g></g></g></svg>