<svg xmlns="http://www.w3.org/2000/svg" xmlns:xlink="http://www.w3.org/1999/xlink" viewBox="0,0,256,256" width="50px" height="50px" fill-rule="nonzero"><g transform="translate(10,10) scale(0.92188,0.92188)"><g fill="#ff99b9" fill-rule="nonzero" stroke="#ff99b9" stroke-width="20" stroke-linecap="butt" stroke-linejoin="round" stroke-miterlimit="10" stroke-dasharray="" stroke-dashoffset="0" font-family="none" font-weight="none" font-size="none" text-anchor="none" style="mix-blend-mode: normal"><path d="M2.6,65c-1.6,-3.2 0,-7 3.4,-8.2l68,-23.6c1.2,-1.6 2.6,-7.4 3.4,-10.8c2.2,-9.4 4.4,-18.2 11.8,-20c0.8,-0.2 1.8,-0.4 2.6,-0.4c3.8,0 7.6,2 11,5.8c14,14.6 29,59.4 28.6,70.8c0,1 0,3 -3.4,7.4l14,15.8c3.4,3.4 21,22.2 37.4,44.8c22.2,30.6 32.2,54.6 29.8,71.4c-0.4,3 -1.2,6 -2,9c-5.2,17.4 -18.8,27 -38.6,27h-1l-61,0.2c-3,-0.8 -5.2,-3.6 -4.6,-7c0.6,-3 3.2,-5 6.2,-5h28c0.8,0 1.2,0 1.4,-0.2c5,-1 7.8,-6.4 6,-11.2c-0.6,-1.6 -1,-3.2 -1.2,-4.4c-1.2,-6.4 0,-13 2.8,-16.6c2.2,-2.8 1.6,-7.2 -1.8,-9c-2.6,-1.6 -6,-0.6 -7.8,1.8c-4.8,6.4 -6.8,16.2 -5,25.8c0,0.6 0.2,1.2 0.4,1.8h-22.2c-8.8,0 -16.6,5.8 -18.4,14.2c-0.4,1.8 -0.6,3.6 -0.4,5.4c0.2,2.2 -1.6,4.2 -4,4.2l-40.8,0c-3.6,0 -6.6,-3.4 -5.8,-7.2c0.6,-2.8 3.2,-4.8 6.2,-4.8h11.8c1.6,-6.4 3.2,-15.2 4.6,-26.2c0,-0.2 0,-0.2 0,-0.4c5.2,-42.2 15.8,-104.8 11.8,-114c-1.4,-1 -3.6,-1.4 -7,-1.4c-2.6,0 -5.4,0.4 -8.4,0.6c-3,0.2 -16.2,0.6 -19.2,0.6c-3.4,0 -8.6,-0.4 -12.8,-3.4c-12.8,-9 -23.4,-31.8 -23.8,-32.8zM209.2,250.4c-1,-3.2 0.4,-6.6 3.6,-7.8c10,-3.8 18,-11.4 22.2,-21c1.2,-3 4.8,-4.6 7.8,-3.2c3,1.2 4.6,4.8 3.2,7.8c-5.4,12.6 -16,22.6 -29.2,27.4c-0.6,0.2 -1.4,0.4 -2,0.4c-2.4,0 -4.8,-1.4 -5.6,-3.6z" id="strokeMainSVG"></path></g><g fill="#000000" fill-rule="nonzero" stroke="none" stroke-width="1" stroke-linecap="butt" stroke-linejoin="miter" stroke-miterlimit="10" stroke-dasharray="" stroke-dashoffset="0" font-family="none" font-weight="none" font-size="none" text-anchor="none" style="mix-blend-mode: normal"><g transform="scale(2,2)"><path d="M13.2,48.9c2.1,1.5 4.7,1.7 6.4,1.7c1.5,0 8.1,-0.2 9.6,-0.3c1.5,-0.1 2.9,-0.3 4.2,-0.3c1.7,0 2.8,0.2 3.5,0.7c2,4.6 -3.3,35.9 -5.9,57c0,0.1 0,0.1 0,0.2c-0.7,5.5 -1.5,9.9 -2.3,13.1h-5.9c-1.5,0 -2.8,1 -3.1,2.4c-0.4,1.9 1.1,3.6 2.9,3.6h4v0l16.4,0c1.2,0 2.1,-1 2,-2.1c-0.1,-0.9 0,-1.8 0.2,-2.7c0.9,-4.2 4.8,-7.1 9.2,-7.1h11.1c-0.1,-0.3 -0.2,-0.6 -0.2,-0.9c-0.9,-4.8 0.1,-9.7 2.5,-12.9c0.9,-1.2 2.6,-1.7 3.9,-0.9c1.7,0.9 2,3.1 0.9,4.5c-1.4,1.8 -2,5.1 -1.4,8.3c0.1,0.6 0.3,1.4 0.6,2.2c0.9,2.4 -0.5,5.1 -3,5.6c-0.1,0.1 -0.3,0.1 -0.7,0.1h-14c-1.5,0 -2.8,1 -3.1,2.5c-0.3,1.7 0.8,3.1 2.3,3.5l30.5,-0.1h0.5c9.9,0 16.7,-4.8 19.3,-13.5c0.4,-1.5 0.8,-3 1,-4.5c1.2,-8.4 -3.8,-20.4 -14.9,-35.7c-8.2,-11.3 -17,-20.7 -18.7,-22.4l-7,-7.9c1.7,-2.2 1.7,-3.2 1.7,-3.7c0.2,-5.7 -7.3,-28.1 -14.3,-35.4c-1.7,-1.9 -3.6,-2.9 -5.5,-2.9c-0.4,0 -0.9,0.1 -1.3,0.2c-3.7,0.9 -4.8,5.3 -5.9,10c-0.4,1.7 -1.1,4.6 -1.7,5.4l-34,11.8c-1.7,0.6 -2.5,2.5 -1.7,4.1c0.2,0.5 5.5,11.9 11.9,16.4zM107.4,127c0.3,0 0.7,-0.1 1,-0.2c6.6,-2.4 11.9,-7.4 14.6,-13.7c0.7,-1.5 -0.1,-3.3 -1.6,-3.9c-1.5,-0.7 -3.3,0.1 -3.9,1.6c-2.1,4.8 -6.1,8.6 -11.1,10.5c-1.6,0.6 -2.3,2.3 -1.8,3.9c0.4,1.1 1.6,1.8 2.8,1.8z"></path></g></g></g></svg>