<svg width="20" height="17" viewBox="0 0 20 17" fill="none" xmlns="http://www.w3.org/2000/svg">
<path fill-rule="evenodd" clip-rule="evenodd" d="M1.10216 0.787968C1.78961 0.226549 2.6798 1.54158e-10 3.57143 1.54158e-10H16.7959C17.9751 -9.89422e-06 18.835 0.476273 19.3661 1.20199C19.8601 1.87693 20 2.66926 20 3.25L20 13.75C20 14.9965 19.4366 15.8856 18.5745 16.4061C17.7885 16.8807 16.8398 17 16.0612 17H3.20408C1.98775 17 1.13597 16.459 0.623627 15.7326C0.147952 15.0582 0 14.2809 0 13.75V3.25C-1.54972e-06 2.2314 0.386967 1.37204 1.10216 0.787968ZM2 6.57603V13.75C2 13.9691 2.07246 14.3168 2.25801 14.5799C2.40689 14.791 2.65715 15 3.20408 15H16.0612C16.6881 15 17.2089 14.8943 17.5408 14.6939C17.7967 14.5394 18 14.3035 18 13.75L18 6.17375C17.5501 6.52482 17.0548 6.86488 16.5554 7.18538C15.7252 7.71805 14.8425 8.22232 14.0642 8.65782C13.869 8.76704 13.6822 8.87096 13.505 8.96957C12.9598 9.27286 12.505 9.52585 12.1754 9.72775C11.58 10.0924 10.818 10.2473 10.1035 10.2544C9.37774 10.2615 8.58222 10.1178 7.89232 9.76569C7.58841 9.61056 7.18504 9.42284 6.72571 9.20909C5.71121 8.73696 4.42375 8.13781 3.33213 7.48231C2.87346 7.20688 2.41866 6.90525 2 6.57603ZM2 3.25C2 2.7686 2.16405 2.50296 2.36723 2.33703C2.59814 2.14845 2.99366 2 3.57143 2H16.7959C17.38 2 17.6222 2.20553 17.7522 2.38323C17.9195 2.6117 18 2.94437 18 3.25C18 3.25 18 3.24935 18 3.25C17.9998 3.24999 17.9956 3.31576 17.9054 3.46393C17.8106 3.61974 17.6517 3.81414 17.4151 4.04289C16.9408 4.50167 16.2596 4.99881 15.4753 5.50212C14.6982 6.0007 13.859 6.48081 13.0876 6.91249C12.9109 7.01132 12.7361 7.10855 12.5658 7.20329C12.0088 7.51313 11.4995 7.79636 11.1307 8.02225C10.9387 8.13989 10.5662 8.24971 10.0838 8.25445C9.61266 8.25909 9.14887 8.16159 8.80156 7.98431C8.37982 7.76905 7.90563 7.54915 7.40255 7.31586C6.43969 6.86934 5.37102 6.37375 4.36174 5.76769C3.61702 5.32049 2.99776 4.86256 2.57454 4.40172C2.1507 3.94021 2 3.56167 2 3.25Z" fill="#D182B4"/>
</svg>
