<svg xmlns="http://www.w3.org/2000/svg" xmlns:xlink="http://www.w3.org/1999/xlink" viewBox="0,0,256,256" width="24px" height="24px" fill-rule="nonzero"><g fill="#85005b" fill-rule="nonzero" stroke="none" stroke-width="1" stroke-linecap="butt" stroke-linejoin="miter" stroke-miterlimit="10" stroke-dasharray="" stroke-dashoffset="0" font-family="none" font-weight="none" font-size="none" text-anchor="none" style="mix-blend-mode: normal"><g transform="scale(10.66667,10.66667)"><path d="M16.96631,16.3501c-0.39209,-0.38623 -0.76172,-0.75146 -1.06885,-1.15381c-0.11865,-0.15479 -0.24512,-0.53516 -0.36768,-0.90234c-0.40967,-1.23193 -1.09668,-3.29346 -3.53027,-3.29395c-2.43359,0.00049 -3.11963,2.06201 -3.52979,3.29346c-0.12207,0.36768 -0.24854,0.74805 -0.36719,0.90332c-0.30713,0.40186 -0.67676,0.76709 -1.06885,1.15332c-0.94287,0.93066 -2.01221,1.98535 -2.03369,3.64307c-0.01221,0.9082 0.25488,1.66504 0.77246,2.18945c0.52783,0.53467 1.29785,0.81738 2.22754,0.81738c1.11035,0 1.78516,-0.3877 2.38086,-0.72998c0.50342,-0.28906 0.93848,-0.53906 1.61865,-0.53906c0.68066,0 1.11572,0.25 1.61963,0.53906c0.5957,0.34229 1.27051,0.72998 2.38086,0.72998c0.92969,0 1.69971,-0.28271 2.22754,-0.81738c0.51758,-0.52441 0.78467,-1.28125 0.77246,-2.18896c-0.02148,-1.6582 -1.09082,-2.71289 -2.03369,-3.64355z"></path><path d="M22.53076,9.8335c-0.35059,-0.5376 -0.86865,-0.8335 -1.4585,-0.8335c-1.30615,0 -2.61475,1.49609 -2.97949,3.40674c-0.06152,0.32373 -0.09277,0.64355 -0.09277,0.94971c-0.00049,0.71289 0.16162,1.33887 0.46924,1.81006c0.35059,0.5376 0.86865,0.8335 1.4585,0.8335c1.30615,0 2.61475,-1.49609 2.97949,-3.40625c0,0 0,0 0,-0.00049c0.06152,-0.32373 0.09277,-0.64355 0.09277,-0.94971c0.00049,-0.71289 -0.16162,-1.33887 -0.46924,-1.81006z"></path><path d="M15.3667,9c1.59033,0 3.14648,-1.71777 3.54346,-3.91113c0.05273,-0.29346 0.08203,-0.57959 0.08838,-0.854c0.02588,-1.06104 -0.28711,-2.00537 -0.85889,-2.59131c-0.41064,-0.4209 -0.93164,-0.64355 -1.50635,-0.64355c-1.59033,0 -3.14648,1.71777 -3.54346,3.91113c-0.05273,0.29346 -0.08203,0.57959 -0.08838,0.854c-0.02588,1.06104 0.28711,2.00537 0.85889,2.59131c0.41064,0.4209 0.93164,0.64355 1.50635,0.64355z"></path><path d="M5.53076,15.1665c0.30762,-0.47119 0.46973,-1.09717 0.46924,-1.80957c0,-0.30664 -0.03125,-0.62646 -0.09277,-0.95068c-0.36475,-1.91016 -1.67334,-3.40625 -2.97949,-3.40625c-0.58984,0 -1.10791,0.2959 -1.4585,0.8335c-0.30762,0.47119 -0.46973,1.09717 -0.46924,1.80957c0,0.30664 0.03125,0.62646 0.09277,0.9502c0,0.00049 0,0.00049 0,0.00049c0.36475,1.91016 1.67334,3.40625 2.97949,3.40625c0.58984,0 1.10791,-0.2959 1.4585,-0.8335z"></path><path d="M8.6333,9c0.57471,0 1.0957,-0.22266 1.50635,-0.64355c0.57178,-0.58594 0.88477,-1.53027 0.85889,-2.59082c-0.00635,-0.2749 -0.03564,-0.56104 -0.08838,-0.85449c-0.39697,-2.19336 -1.95312,-3.91113 -3.54346,-3.91113c-0.57471,0 -1.0957,0.22266 -1.50635,0.64355c-0.57178,0.58594 -0.88477,1.53027 -0.85889,2.59082c0.00635,0.2749 0.03564,0.56104 0.08838,0.85449c0.39697,2.19336 1.95313,3.91113 3.54346,3.91113z"></path></g></g></svg>