<svg width="18" height="19" viewBox="0 0 18 19" fill="none" xmlns="http://www.w3.org/2000/svg">
<path fill-rule="evenodd" clip-rule="evenodd" d="M13.0229 2.05174C12.0622 2.24594 11.3501 2.9245 11.2422 3.79692C11.1728 4.35813 11.236 4.71993 11.3303 4.97328C11.4265 5.23158 11.5812 5.44909 11.8074 5.69667C11.9011 5.79927 11.9955 5.89508 12.1041 6.00518C12.133 6.03453 12.163 6.0649 12.1942 6.09668C12.334 6.23913 12.4936 6.40478 12.6452 6.58874C12.9584 6.96864 13.2566 7.44828 13.3842 8.09316C13.5167 8.76277 13.3977 9.46118 13.1729 10.0798C12.9446 10.7083 12.5828 11.3237 12.1406 11.8595C11.2967 12.882 9.94674 13.849 8.42961 13.6911C7.42785 13.5868 6.69159 12.9708 6.27095 12.6188C6.1938 12.5543 6.12728 12.4986 6.07167 12.4566C5.84719 12.287 5.70893 12.2212 5.58572 12.1977C5.4774 12.1771 5.27506 12.1693 4.89995 12.3298C3.53155 12.9152 2.8179 14.3448 3.04198 15.3353C3.14269 15.7805 3.44727 16.2439 4.17783 16.5768C4.94053 16.9244 6.18125 17.1292 8.07399 16.9084C11.1114 16.5542 13.4363 13.9317 14.7913 10.7359C15.4567 9.16643 15.8498 7.5374 15.9646 6.13753C16.0833 4.69009 15.891 3.6632 15.5792 3.15904C14.9688 2.17198 13.9547 1.86337 13.0229 2.05174ZM12.6266 0.0913911C14.2698 -0.240776 16.174 0.318129 17.2802 2.10716C17.9341 3.16456 18.0873 4.72292 17.9579 6.30099C17.8246 7.92665 17.3759 9.76342 16.6326 11.5166C15.1701 14.9661 12.4095 18.4164 8.30567 18.895C6.20624 19.1398 4.56132 18.9495 3.34844 18.3968C2.10341 17.8294 1.34248 16.8871 1.09127 15.7766C0.61151 13.6559 2.04843 11.3743 4.11332 10.491C4.76819 10.2108 5.37816 10.1221 5.96044 10.2331C6.52782 10.3414 6.95845 10.62 7.2771 10.8607C7.45804 10.9973 7.60447 11.1151 7.72947 11.2156C8.10707 11.5192 8.28921 11.6657 8.63668 11.7018C9.17953 11.7584 9.93625 11.3883 10.5982 10.5864C10.9089 10.2099 11.1499 9.7913 11.2931 9.3969C11.44 8.9926 11.4614 8.67929 11.4222 8.48136C11.3782 8.25871 11.2784 8.07495 11.1021 7.861C11.0089 7.74803 10.9008 7.63414 10.7668 7.49762C10.7431 7.4735 10.7182 7.44827 10.6924 7.42209C10.5812 7.30938 10.4528 7.17923 10.3307 7.04554C10.0185 6.70374 9.67776 6.26681 9.45597 5.67101C9.23234 5.07026 9.15509 4.37828 9.25735 3.55144C9.49279 1.64775 11.0123 0.417723 12.6266 0.0913911Z" fill="#D182B4"/>
</svg>
